<?xml version="1.0" encoding="UTF-8"?>
<svg width="40" height="62" version="1.1" viewBox="0 0 40 62" xmlns="http://www.w3.org/2000/svg">
  <path
    d="m11.098 48.945-0.68947 0.91085-1.2396 1.9953 0.45725 0.35991 1.6474-1.675 0.72242-0.88514z
       m18.01-1.75e-4 -0.89314 0.71114 0.72711 0.88066 1.6581 1.665 0.45405-0.3618-1.2509-1.9884z
       m-15.37 1.8221-0.48735 1.0325-0.80255 2.2086 0.5211 0.25726 1.2674-1.9776 0.52419-1.015z
       m12.761 7.63e-4 -1.0218 0.50893 0.52698 1.0124 1.273 1.9748 0.52098-0.25872-0.80921-2.206z
       m-9.9162 1.1744-0.24442 1.1159-0.2892 2.3312 0.56529 0.13472 0.79337-2.2115 0.28518-1.1056z
       m7.09 5.3e-5 -1.1108 0.26537 0.28554 1.1054 0.79411 2.2114 0.56602-0.13492-0.28965-2.3319z
       m-4.1152 0.48527 0.02057 1.1421 0.25928 2.3345 0.58189 5.93e-4 0.25872-2.3347 0.02091-1.1419z
       m-9.1822-47.372c-0.62097-1.3106-1.9979-2.2285-4.7284-2.0271l0.05065 1.646c2.0145-0.2375 2.7397 0.26694 3.1172 1.0636 0.69403 1.4647-0.87594 3.5383 0.08595 5.5684 0.62097 1.3106 1.9979 2.2285 4.7532 2.0153l-0.07543-1.6342c-1.9897 0.22567-2.7397-0.26694-3.1172-1.0636-0.69403-1.4647 0.87594-3.5383-0.08595-5.5684z
       m13.839 14.547c2.0699 1.2521 4.8603 1.2214 8.564-1.6938l-1.5618-2.2752c-2.652 2.2764-4.1407 2.2629-5.3988 1.5018-2.3134-1.3994-1.9558-5.8397-5.1621-7.7792-2.0699-1.2521-4.8603-1.2214-8.5885 1.7344l1.5864 2.2347c2.6275-2.2358 4.1407-2.2629 5.3988-1.5018 2.3134 1.3994 1.9558 5.8397 5.1621 7.7792z
       m4.5071-5.8236c3.1577 0.35295 6.468-1.2204 9.2787-6.7363l-3.1154-1.8528c-1.9085 4.1749-3.691 4.9787-5.6104 4.7642-3.5292-0.39448-5.5483-5.8861-10.44-6.4328-3.1577-0.35295-6.468 1.2204-9.2856 6.7983l3.1224 1.7909c1.9016-4.113 3.691-4.9787 5.6104-4.7642 3.5292 0.39448 5.5483 5.8861 10.44 6.4328z
       m-21.2 8.8568c-1.1831 0-2.0341 0.7886-2.0341 1.9095 0 1.1209 0.851 1.8476 2.0341 1.8476 1.1831 0 2.0341-0.72677 2.0341-1.8476 0-1.1209-0.851-1.9095-2.0341-1.9095z
       m24.892 0c-1.1831 0-2.0341 0.7886-2.0341 1.9095 0 1.1209 0.851 1.8476 2.0341 1.8476 1.1831 0 2.0341-0.72677 2.0341-1.8476 0-1.1209-0.851-1.9095-2.0341-1.9095z
       m-18.57 1.121v2.4071h3.2382v8.1163c0 2.6154 1.3495 4.276 3.9233 4.276 1.2869 0 2.0129-0.2076 3.0922-0.56048l-0.68413-2.2419c-0.6227 0.24908-1.1209 0.33244-1.5983 0.33244-0.87178 0-1.6814-0.41527-1.6814-1.6814v-10.648z
       m-11.844 4.2548v2.3868h4.1311v7.9085h3.0507v-10.295z
       m24.892 0v2.3868h4.1311v7.9085h3.0507v-10.295z
       m-15.104 14.516-1.1007 1.3277c2.304 2.7814 5.5012 4.5254 9.445 4.5254 3.9438 0 7.14-1.744 9.444-4.5254l-1.0997-1.3277c-2.387 2.6361-4.9609 3.7977-8.3443 3.7977s-5.9573-1.1616-8.3443-3.7977z"
    fill="#d3d0c8" />
</svg>